<?xml version="1.0" encoding="utf-8"?>
<svg width="336" height="188" viewBox="0 0 336 188" xmlns="http://www.w3.org/2000/svg">
<rect id="frame" x="0" y="0" width="336" height="188" fill="#f7f7f7" stroke="none" stroke-width="0"/>

<!-- Association APPARTENIR -->
<g class="page_0_ADwxZ30P diagram_page" visibility="visible">
	<line x1="46" y1="94" x2="161" y2="94" stroke="#d6604d" stroke-width="2"/>
	<text x="88" y="111" fill="#2166ac" font-family="Verdana" font-size="12">0,N</text>
	<line x1="283" y1="94" x2="161" y2="94" stroke="#d6604d" stroke-width="2"/>
	<text x="213" y="111" fill="#2166ac" font-family="Verdana" font-size="12">0,1</text>
	<g>
		<path d="M193 69 a14 14 90 0 1 14 14 V94 h-92 V83 a14 14 90 0 1 14 -14" fill="#f4a582" stroke="#f4a582" stroke-width="0"/>
		<path d="M207 94 v11 a14 14 90 0 1 -14 14 H129 a14 14 90 0 1 -14 -14 V94 H92" fill="#fddbc7" stroke="#fddbc7" stroke-width="0"/>
		<rect x="115" y="69" width="92" height="50" fill="none" rx="14" stroke="#d6604d" stroke-width="2"/>
		<line x1="115" y1="94" x2="207" y2="94" stroke="#d6604d" stroke-width="1"/>
		<text x="122" y="86.75" fill="#000" font-family="Verdana" font-size="12">APPARTENIR</text>
	</g>
</g>

<!-- Entity LIGUE -->
<g class="page_0_ADwxZ30P diagram_page" visibility="visible">
	<g>
		<rect x="9" y="60" width="74" height="25" fill="#92c5de" stroke="#92c5de" stroke-width="0" opacity="1"/>
		<rect x="9" y="85" width="74" height="43" fill="#d1e5f0" stroke="#d1e5f0" stroke-width="0" opacity="1"/>
		<rect x="9" y="60" width="74" height="68" fill="none" stroke="#4393c3" stroke-width="2" opacity="1"/>
		<line x1="9" y1="85" x2="83" y2="85" stroke="#4393c3" stroke-width="1"/>
	</g>
	<text x="27" y="77.75" fill="#000" font-family="Verdana" font-size="12">LIGUE</text>
	<text x="14" y="102.8" fill="#000" font-family="Verdana" font-size="12">id_ligue</text>
	<line x1="14" y1="105" x2="62" y2="105" stroke="#000" stroke-width="1"/>
	<text x="14" y="119.8" fill="#000" font-family="Verdana" font-size="12">nom_ligue</text>
</g>

<!-- Entity EMPLOYÉ -->
<g class="page_0_ADwxZ30P diagram_page" visibility="visible">
	<g>
		<rect x="239" y="9" width="88" height="25" fill="#92c5de" stroke="#92c5de" stroke-width="0" opacity="1"/>
		<rect x="239" y="34" width="88" height="145" fill="#d1e5f0" stroke="#d1e5f0" stroke-width="0" opacity="1"/>
		<rect x="239" y="9" width="88" height="170" fill="none" stroke="#4393c3" stroke-width="2" opacity="1"/>
		<line x1="239" y1="34" x2="327" y2="34" stroke="#4393c3" stroke-width="1"/>
	</g>
	<text x="255" y="26.75" fill="#000" font-family="Verdana" font-size="12">EMPLOYÉ</text>
	<text x="244" y="51.8" fill="#000" font-family="Verdana" font-size="12">id_employee</text>
	<line x1="244" y1="54" x2="322" y2="54" stroke="#000" stroke-width="1"/>
	<text x="244" y="68.8" fill="#000" font-family="Verdana" font-size="12">nom</text>
	<text x="244" y="85.8" fill="#000" font-family="Verdana" font-size="12">prénom</text>
	<text x="244" y="102.8" fill="#000" font-family="Verdana" font-size="12">mail</text>
	<text x="244" y="119.8" fill="#000" font-family="Verdana" font-size="12">password</text>
	<text x="244" y="136.8" fill="#000" font-family="Verdana" font-size="12">datearrivée</text>
	<text x="244" y="153.8" fill="#000" font-family="Verdana" font-size="12">datedépart</text>
	<text x="244" y="170.8" fill="#000" font-family="Verdana" font-size="12">habilitation</text>
</g>
</svg>